# xmcd
#
# Track frame offsets:
#   150
#   15281
#   26717
#   41578
#   56341
#   72014
#   93578
#   111817
#   128119
#   144661
#   160198
#   180233
#   201399
#   220634
#   238604
#   255503
#   270502
#   287722
#   300374
#   314355
#   327007
#
# Disc length: 4609 seconds
#
# Revision: 0
# Processed by: cddbd v1.5.1PL0 Copyright (c) Steve Scherf et al.
# Submitted via: Media_Universe 3.0
#
DISCID=1a11ff15
DTITLE=BILLY RAY CYRUS - Billy Ray Cyrus
DYEAR=2004
DGENRE=Country
TTITLE0=When I Leave This House
TTITLE1=Rock This Planet
TTITLE2=Burn Down The Trailor Park
TTITLE3=Busy Man
TTITLE4=Everywhere I Wanna Be
TTITLE5=Hard To Leave
TTITLE6=His Shoes
TTITLE7=I Still Believe
TTITLE8=One Last Thrill
TTITLE9=She's Not Crying Anymore
TTITLE10=Shot Full Of Love
TTITLE11=Stand Still
TTITLE12=Three Little Words
TTITLE13=Time Flies
TTITLE14=Trail Of Tears
TTITLE15=Truth Is I Lied
TTITLE16=What Else Is There
TTITLE17=Under The Hood
TTITLE18=Words By Heart
TTITLE19=These Boots Are Made For Walking
TTITLE20=Touchy Suject
EXTD=
EXTT0=
EXTT1=
EXTT2=
EXTT3=
EXTT4=
EXTT5=
EXTT6=
EXTT7=
EXTT8=
EXTT9=
EXTT10=
EXTT11=
EXTT12=
EXTT13=
EXTT14=
EXTT15=
EXTT16=
EXTT17=
EXTT18=
EXTT19=
EXTT20=
PLAYORDER=
